<?xml version="1.0" encoding="UTF-8"?>
<svg version="1.1" viewBox="0 0 1424 1192" width="1280" height="1280" xmlns="http://www.w3.org/2000/svg">
<path transform="translate(442,328)" d="m0 0h24l29 3 30 5 25 6 30 10 26 11 15 8v4l-16 11-19 13-15 10-11 7-33 22-16 10-14 9-2 1-33-2h-13l-26 2-20 4-20 6-25 10-18 10-16 11-11 9-10 9-13 13-11 14-10 15-12 21-8 19-6 19-4 17-3 19-1 13 4-2 9-9 17-13 15-8 19-7 13-3 8-1h28l18 3 18 6 16 8 11 7 11 9 13 13 10 13 10 17 7 19 3 13 2 13v23l-4 23-6 18-8 16-8 12-13 15-10 9-15 10-19 9-5 2 4 3 13 4 29 6 10 1h40l19-2 21-5 23-8 26-12 21-14 10-8 13-11 12-12 9-11 13-18 11-20 10-23 5-13 7-6 15-10 10-7 20-13 39-26 10-7 22-14 7-4h4l1 8v30l-2 25-4 25-7 31-10 30-10 23-9 19-10 17-15 22-9 12-12 14-11 12-11 11-11 9-9 8-18 13-15 10-15 9-16 8-23 11-25 9-26 7-20 4-32 4-14 1h-28l-16-1-34-5-23-5-17-5-25-9-29-13-20-11-24-16-18-14-15-13-17-17-11-12-11-14-10-13-10-15-12-21-8-16-10-23-10-30-7-30-4-27-2-20v-34l4-36 6-30 7-25 11-29 12-26 10-17 9-14 14-19 10-13 7-8h2l2-4 17-17 8-7 10-9 16-12 15-10 21-13 26-13 25-10 26-8 23-5 41-6z" fill="#454D55"/>
<path transform="translate(959,328)" d="m0 0 24 1 32 4 30 6 25 7 29 11 29 14 20 12 12 8 21 16 12 11 8 7 18 18 9 11 10 12 13 19 9 14 14 25 13 31 11 34 7 36 2 15 1 16v38l-2 28-5 28-6 24-8 24-10 24-8 16-8 15-12 19-11 15-11 14-9 10-11 12-16 15-16 13-15 11-19 12-25 14-20 9-26 10-25 7-23 5-23 3-29 2h-14l-24-1-38-5-32-8-25-9-26-11-16-8v-3l8-6 16-10 23-16 16-10 11-8 16-10 20-14 15-10 17 1 15 1h19l22-2 22-4 23-7 19-8 18-10 15-10 13-10 12-11 4-4h2l2-4 10-11 12-16 11-18 10-22 8-24 5-23 3-24 1-4-4 3h-2v2l-8 7-13 10-16 9-14 6-18 5-14 2h-21l-21-3-17-5-16-8-13-8-13-10-8-8-11-14-8-13-8-17-6-20-2-13v-26l3-18 5-17 8-17 12-18 12-13 11-10 15-10 17-8 5-2-2-2-18-6-12-3-21-3-11-1h-24l-28 3-25 6-22 8-22 11-24 16-16 13-17 17-13 17-10 15-9 16-10 24-4 11-8 7-39 26-17 11-69 46-2-2-1-14v-26l4-38 5-26 7-25 11-30 11-24 10-18 14-22 12-16 8-10 9-10 6-7h2l2-4 6-5 5-5 13-12 17-13 14-10 22-13 21-11 23-10 33-11 26-6 25-4 16-2z" fill="#F0932A"/>
<path transform="translate(973,84)" d="m0 0h201l1 1v138l-15 11-9 3-2 4-6 11-8 8-8 4h-20l-5-8-13-22-10-15-2-6 3-5 12-22 5-7 9 1 8-8 12-18 10-18 7-15-6 1-1 5-15 26-7 10-2-1 3-7 14-25 6-10h-3l-11 18-14 21h-2l1-6 9-16 8-13 4-7-1-3-12 21-10 15-3 4h-3l1-6 14-25 7-11 1-4h-3l-11 20-10 17-10 15-1 2v7l6 7-8 13-10 15-5-1-6-8-10-15 1-5 5-7 2-6v-9l-5-12-8-11-10-10-10-7-7-3h-8l-5 3-3 5-1 5v12l5 19 8 16 3 3v2l4 2 9 4h7l6-1 4 4 14 27 1 6-12 19-11 19-6 9h-63l-1-1v-178z" fill="#678459"/>
<path transform="translate(298,69)" d="m0 0 6 1 10 9 9 9 2 1h12l8-7 11-11 3-2 9 2 12 6 2 4 1 27 6 7 4 2 30 1 8 16 1 7-7 9h-2l-2 4-6 5-34 1-3-5-4-10-7-10-9-8-11-5-8-2h-17l-12 4-11 7-8 9-6 12-2 10v13l3 11 5 10 9 10 12 7 11 4 1 1v28l-3 5-7 7-1 2h-2l-1 3-7 5-14-5-8-5-1-2-1-28-5-6-7-3h-25l-5-5-6-14v-5l9-10 10-10 2-8-2-7-20-20 1-6 6-15 2-2 31-1 7-6 2-3v-27l2-4z" fill="#B7B5B3"/>
<path transform="translate(809,98)" d="m0 0h14l16 3 16 8 13 10 8 9 8 13 6 16 2 14v11l-3 15-2 6-8-4-17-11-44-27-2-2v-10l2-4 8-5 5-6v-12l-4-6-6-4-3-1h-8l-7 3-4 5-2 9 2 2 3-8 7-6h10l6 4 2 3v9l-6 7-9 4v13l-2 5-20 12-21 13-17 11-9 6h-2l-4-13-1-8v-10l3-18 5-13 7-11 9-11 11-9 16-8 12-3zm-21 42-5 2-4 4-1 6 2 5 3 2 6 1 6-3 3-4-1-7-5-5zm48 1-5 3-3 5 1 5 5 5 4 1 7-3 3-3v-6l-4-6-1-1z" fill="#EF932B"/>
<path transform="translate(813,168)" d="m0 0 7 2 19 12 15 10 21 13 8 5-2 5-11 14-7 7-5 2h-89l-6-4-11-12-6-9 1-4 16-10 19-12 15-10zm-29 23-5 5v7l3 5 2 1h8l4-3 1-3v-7l-5-5zm55-1-5 2-3 4v7l3 5 1 1h8l6-3 1-6-3-7-2-2z" fill="#F0932B"/>
<path transform="translate(633,109)" d="m0 0h17l29 2 2 1-2 17-3 19-3 8-4 3-7-1-4-5-1-11-16 10-10 7-19 12-15 10-22 14-3-1-2-15-1-11h-3l-16 11-18 13-19 13-16 12-7 4-6 1-6-5-1-6 6-7 13-9 12-8 12-9 23-16 18-13 14-10 6-4h2l3 30 5-2 20-13 33-22 1-2-10-1-5-2-1-7 3-6z" fill="#95B9DA"/>
<path transform="translate(380,173)" d="m0 0h33l1 2 2 13 11 63 1 11-2 1-64-10-12-2-13-3-1-2v-11l1-18 13-4 9-5 10-9 6-9 3-8z" fill="#B6B5B3"/>
<path transform="translate(648,154)" d="m0 0 5 3 6 5 1 2v48l-2 7-8 7-4 1h-138l-8-2 2-5 4-3h2v-2l3-2 15-1h109l9-1 1-54z" fill="#95B9DA"/>
<path transform="translate(504,109)" d="m0 0h121l-1 13-2 1h-95l-17 1-1 3-1 35-1 18-5 4-5 3h-3l-1-2v-63l3-7 5-5z" fill="#95B9DA"/>
<path transform="translate(805,88)" d="m0 0h18l15 3 13 5 14 8 13 11 8 9 6 10 7 18 2 10v28l-4 16-2 2h-3l-1-6 3-13 1-11-1-16-4-16-7-14-9-12-10-9-17-10-11-4-13-2h-18l-15 3-13 5-10 6-10 9h-2v2h-2l-2 4-10 15-5 13-2 14v20l4 17-2 4-3 1-3-5-3-13-1-19 2-14 5-15 8-15 11-13 12-10 13-8 17-6z" fill="#ED9430"/>
<path transform="translate(557,232)" d="m0 0h39v7l17 2 2 2v6l-2 2h-73l-2-3 1-6 6-2h11z" fill="#95B8D9"/>
<path transform="translate(730,210)" d="m0 0 5 1 6 4 9 10 9 11 1 2-1 5v4l-41-1-5-3-5-8v-6l4-6 8-7zm2 8-12 8-4 4 1 6 5 3h27l2-2-12-17-2-2z" fill="#EE932D"/>
<path transform="translate(894,210)" d="m0 0 5 1 13 8 5 4 3 5v8l-6 8-7 2-39 1-1-2 4-1-2-5 1-4 5-5 7-9 4-6zm-2 6-10 14-4 6v2l11 1h19l4-3v-6l-9-8z" fill="#EB9430"/>
<path transform="translate(1070,227)" d="m0 0 3 1 17 34v2l-32 1-7-1 2-6 6-9 9-19z" fill="#69855B"/>
<path transform="translate(766,246)" d="m0 0 9 1 16 6 17 3h17l19-5 12-5h7l-1 3-16 8-18 5-10 1h-10l-13-2-16-5-13-7z" fill="#79895B"/>
<path transform="translate(730,152)" d="m0 0 2 4 2 10v20l4 17-2 4-3 1-3-5-3-13-1-19 2-14z" fill="#738759"/>
<path transform="translate(786,246)" d="m0 0 55 1-1 2-14 4-17 1-14-3-9-4z" fill="#7F8856"/>
<path transform="translate(766,246)" d="m0 0 9 1 16 6 9 2 3 7-8-1-16-5-13-7z" fill="#E69435"/>
<path transform="translate(1136,119)" d="m0 0h2l1 3h-2l-1 5-15 26-7 10-2-1 3-7 14-25z" fill="#768D6A"/>
<path transform="translate(856,246)" d="m0 0h7l-1 3-16 8-16 4 2-3 4-1 1-2-2-1 16-6z" fill="#EB9737"/>
<path transform="translate(729,196)" d="m0 0 2 1v5l5 1v4l-3 1-3-5z" fill="#EC9533"/>
<path transform="translate(758,238)" d="m0 0 1 2 1 6-2 1v-2l-4-1 1-2-1-3z" fill="#8C8E5D"/>
</svg>
